<svg width="110" height="85" viewBox="0 0 110 85" fill="none" xmlns="http://www.w3.org/2000/svg">
<path d="M9.64 25.35C7.82 25.35 6.23333 25.0583 4.88 24.475C3.55 23.8683 2.52333 23.0867 1.8 22.13C1.1 21.1733 0.726667 20.1467 0.68 19.05C0.68 18.8633 0.75 18.7 0.89 18.56C1.03 18.42 1.205 18.35 1.415 18.35H2.115C2.535 18.35 2.79167 18.5833 2.885 19.05C3.04833 20.17 3.69 21.15 4.81 21.99C5.93 22.83 7.54 23.25 9.64 23.25C11.8567 23.25 13.5017 22.8533 14.575 22.06C15.6717 21.2433 16.22 20.1117 16.22 18.665C16.22 17.7783 15.9517 17.055 15.415 16.495C14.9017 15.9117 14.1433 15.41 13.14 14.99C12.1367 14.5467 10.62 13.9983 8.59 13.345C6.79333 12.7617 5.38167 12.19 4.355 11.63C3.35167 11.07 2.605 10.3817 2.115 9.565C1.625 8.74833 1.38 7.71 1.38 6.45C1.38 5.26 1.695 4.18667 2.325 3.23C2.97833 2.27333 3.91167 1.52666 5.125 0.989998C6.33833 0.429999 7.785 0.149999 9.465 0.149999C11.1917 0.149999 12.6733 0.464999 13.91 1.095C15.1467 1.70167 16.08 2.48333 16.71 3.44C17.34 4.37333 17.6783 5.31833 17.725 6.275C17.725 6.46167 17.655 6.625 17.515 6.765C17.3983 6.905 17.2233 6.975 16.99 6.975H16.29C16.1267 6.975 15.9633 6.92833 15.8 6.835C15.6367 6.71833 15.5433 6.53167 15.52 6.275C15.38 5.10833 14.75 4.15167 13.63 3.405C12.5333 2.635 11.145 2.25 9.465 2.25C7.66833 2.25 6.23333 2.6 5.16 3.3C4.11 4 3.585 5.05 3.585 6.45C3.585 7.36 3.81833 8.11833 4.285 8.725C4.775 9.30833 5.49833 9.82167 6.455 10.265C7.41167 10.685 8.82333 11.1983 10.69 11.805C12.6033 12.4117 14.0967 12.995 15.17 13.555C16.2433 14.115 17.0483 14.7917 17.585 15.585C18.145 16.3783 18.425 17.405 18.425 18.665C18.425 20.765 17.6433 22.41 16.08 23.6C14.5167 24.7667 12.37 25.35 9.64 25.35ZM21.3896 25C21.2029 25 21.0396 24.93 20.8996 24.79C20.7596 24.65 20.6896 24.4867 20.6896 24.3L20.7596 23.915L29.6146 1.2C29.8013 0.733332 30.1396 0.499998 30.6296 0.499998H31.8196C32.3096 0.499998 32.6479 0.733332 32.8346 1.2L41.6896 23.915L41.7596 24.3C41.7596 24.4867 41.6896 24.65 41.5496 24.79C41.4096 24.93 41.2463 25 41.0596 25H40.3596C40.1496 25 39.9746 24.9417 39.8346 24.825C39.7179 24.7083 39.6363 24.5917 39.5896 24.475L37.4196 18.875H25.0296L22.8596 24.475C22.8129 24.5917 22.7196 24.7083 22.5796 24.825C22.4629 24.9417 22.2996 25 22.0896 25H21.3896ZM36.5796 16.775L31.2246 2.985L25.8696 16.775H36.5796ZM52.9115 25.35C51.0915 25.35 49.5048 25.0583 48.1515 24.475C46.8215 23.8683 45.7948 23.0867 45.0715 22.13C44.3715 21.1733 43.9982 20.1467 43.9515 19.05C43.9515 18.8633 44.0215 18.7 44.1615 18.56C44.3015 18.42 44.4765 18.35 44.6865 18.35H45.3865C45.8065 18.35 46.0632 18.5833 46.1565 19.05C46.3198 20.17 46.9615 21.15 48.0815 21.99C49.2015 22.83 50.8115 23.25 52.9115 23.25C55.1282 23.25 56.7732 22.8533 57.8465 22.06C58.9432 21.2433 59.4915 20.1117 59.4915 18.665C59.4915 17.7783 59.2232 17.055 58.6865 16.495C58.1732 15.9117 57.4148 15.41 56.4115 14.99C55.4082 14.5467 53.8915 13.9983 51.8615 13.345C50.0648 12.7617 48.6532 12.19 47.6265 11.63C46.6232 11.07 45.8765 10.3817 45.3865 9.565C44.8965 8.74833 44.6515 7.71 44.6515 6.45C44.6515 5.26 44.9665 4.18667 45.5965 3.23C46.2498 2.27333 47.1832 1.52666 48.3965 0.989998C49.6098 0.429999 51.0565 0.149999 52.7365 0.149999C54.4632 0.149999 55.9448 0.464999 57.1815 1.095C58.4182 1.70167 59.3515 2.48333 59.9815 3.44C60.6115 4.37333 60.9498 5.31833 60.9965 6.275C60.9965 6.46167 60.9265 6.625 60.7865 6.765C60.6698 6.905 60.4948 6.975 60.2615 6.975H59.5615C59.3982 6.975 59.2348 6.92833 59.0715 6.835C58.9082 6.71833 58.8148 6.53167 58.7915 6.275C58.6515 5.10833 58.0215 4.15167 56.9015 3.405C55.8048 2.635 54.4165 2.25 52.7365 2.25C50.9398 2.25 49.5048 2.6 48.4315 3.3C47.3815 4 46.8565 5.05 46.8565 6.45C46.8565 7.36 47.0898 8.11833 47.5565 8.725C48.0465 9.30833 48.7698 9.82167 49.7265 10.265C50.6832 10.685 52.0948 11.1983 53.9615 11.805C55.8748 12.4117 57.3682 12.995 58.4415 13.555C59.5148 14.115 60.3198 14.7917 60.8565 15.585C61.4165 16.3783 61.6965 17.405 61.6965 18.665C61.6965 20.765 60.9148 22.41 59.3515 23.6C57.7882 24.7667 55.6415 25.35 52.9115 25.35ZM67.5229 25C67.2896 25 67.1029 24.93 66.9629 24.79C66.8229 24.65 66.7529 24.4633 66.7529 24.23V1.305C66.7529 1.07167 66.8229 0.884999 66.9629 0.744999C67.1029 0.581665 67.2896 0.499998 67.5229 0.499998H68.1529C68.4096 0.499998 68.6079 0.569999 68.7479 0.71C68.8879 0.849999 68.9579 1.04833 68.9579 1.305V11.525H82.4679V1.305C82.4679 1.07167 82.5379 0.884999 82.6779 0.744999C82.8179 0.581665 83.0046 0.499998 83.2379 0.499998H83.8679C84.1246 0.499998 84.3229 0.569999 84.4629 0.71C84.6029 0.849999 84.6729 1.04833 84.6729 1.305V24.23C84.6729 24.4633 84.5912 24.65 84.4279 24.79C84.2879 24.93 84.1012 25 83.8679 25H83.2379C83.0046 25 82.8179 24.93 82.6779 24.79C82.5379 24.65 82.4679 24.4633 82.4679 24.23V13.625H68.9579V24.23C68.9579 24.4633 68.8762 24.65 68.7129 24.79C68.5729 24.93 68.3862 25 68.1529 25H67.5229ZM89.5097 25C89.3231 25 89.1597 24.93 89.0197 24.79C88.8797 24.65 88.8097 24.4867 88.8097 24.3L88.8797 23.915L97.7347 1.2C97.9214 0.733332 98.2597 0.499998 98.7497 0.499998H99.9397C100.43 0.499998 100.768 0.733332 100.955 1.2L109.81 23.915L109.88 24.3C109.88 24.4867 109.81 24.65 109.67 24.79C109.53 24.93 109.366 25 109.18 25H108.48C108.27 25 108.095 24.9417 107.955 24.825C107.838 24.7083 107.756 24.5917 107.71 24.475L105.54 18.875H93.1497L90.9797 24.475C90.9331 24.5917 90.8397 24.7083 90.6997 24.825C90.5831 24.9417 90.4197 25 90.2097 25H89.5097ZM104.7 16.775L99.3447 2.985L93.9897 16.775H104.7ZM9.64 55.35C7.82 55.35 6.23333 55.0583 4.88 54.475C3.55 53.8683 2.52333 53.0867 1.8 52.13C1.1 51.1733 0.726667 50.1467 0.68 49.05C0.68 48.8633 0.75 48.7 0.89 48.56C1.03 48.42 1.205 48.35 1.415 48.35H2.115C2.535 48.35 2.79167 48.5833 2.885 49.05C3.04833 50.17 3.69 51.15 4.81 51.99C5.93 52.83 7.54 53.25 9.64 53.25C11.8567 53.25 13.5017 52.8533 14.575 52.06C15.6717 51.2433 16.22 50.1117 16.22 48.665C16.22 47.7783 15.9517 47.055 15.415 46.495C14.9017 45.9117 14.1433 45.41 13.14 44.99C12.1367 44.5467 10.62 43.9983 8.59 43.345C6.79333 42.7617 5.38167 42.19 4.355 41.63C3.35167 41.07 2.605 40.3817 2.115 39.565C1.625 38.7483 1.38 37.71 1.38 36.45C1.38 35.26 1.695 34.1867 2.325 33.23C2.97833 32.2733 3.91167 31.5267 5.125 30.99C6.33833 30.43 7.785 30.15 9.465 30.15C11.1917 30.15 12.6733 30.465 13.91 31.095C15.1467 31.7017 16.08 32.4833 16.71 33.44C17.34 34.3733 17.6783 35.3183 17.725 36.275C17.725 36.4617 17.655 36.625 17.515 36.765C17.3983 36.905 17.2233 36.975 16.99 36.975H16.29C16.1267 36.975 15.9633 36.9283 15.8 36.835C15.6367 36.7183 15.5433 36.5317 15.52 36.275C15.38 35.1083 14.75 34.1517 13.63 33.405C12.5333 32.635 11.145 32.25 9.465 32.25C7.66833 32.25 6.23333 32.6 5.16 33.3C4.11 34 3.585 35.05 3.585 36.45C3.585 37.36 3.81833 38.1183 4.285 38.725C4.775 39.3083 5.49833 39.8217 6.455 40.265C7.41167 40.685 8.82333 41.1983 10.69 41.805C12.6033 42.4117 14.0967 42.995 15.17 43.555C16.2433 44.115 17.0483 44.7917 17.585 45.585C18.145 46.3783 18.425 47.405 18.425 48.665C18.425 50.765 17.6433 52.41 16.08 53.6C14.5167 54.7667 12.37 55.35 9.64 55.35ZM29.333 55C29.0996 55 28.913 54.93 28.773 54.79C28.633 54.65 28.563 54.4633 28.563 54.23V32.6H21.633C21.3996 32.6 21.213 32.53 21.073 32.39C20.933 32.25 20.863 32.0633 20.863 31.83V31.305C20.863 31.0717 20.933 30.885 21.073 30.745C21.213 30.5817 21.3996 30.5 21.633 30.5H37.663C37.9196 30.5 38.118 30.57 38.258 30.71C38.398 30.85 38.468 31.0483 38.468 31.305V31.83C38.468 32.0633 38.3863 32.25 38.223 32.39C38.083 32.53 37.8963 32.6 37.663 32.6H30.768V54.23C30.768 54.4633 30.6863 54.65 30.523 54.79C30.383 54.93 30.1963 55 29.963 55H29.333ZM51.5104 55.35C48.5937 55.35 46.3537 54.545 44.7904 52.935C43.2504 51.3017 42.4804 48.8283 42.4804 45.515V31.305C42.4804 31.0717 42.5504 30.885 42.6904 30.745C42.8304 30.5817 43.0171 30.5 43.2504 30.5H43.8804C44.1371 30.5 44.3354 30.57 44.4754 30.71C44.6154 30.85 44.6854 31.0483 44.6854 31.305V45.62C44.6854 48.1867 45.2804 50.1 46.4704 51.36C47.6604 52.62 49.3404 53.25 51.5104 53.25C53.6571 53.25 55.3254 52.62 56.5154 51.36C57.7054 50.1 58.3004 48.1867 58.3004 45.62V31.305C58.3004 31.0483 58.3704 30.85 58.5104 30.71C58.6737 30.57 58.8721 30.5 59.1054 30.5H59.7354C59.9687 30.5 60.1554 30.5817 60.2954 30.745C60.4354 30.885 60.5054 31.0717 60.5054 31.305V45.515C60.5054 48.8517 59.7354 51.325 58.1954 52.935C56.6554 54.545 54.4271 55.35 51.5104 55.35ZM67.6596 55C67.4263 55 67.2396 54.93 67.0996 54.79C66.9596 54.65 66.8896 54.4633 66.8896 54.23V31.305C66.8896 31.0717 66.9596 30.885 67.0996 30.745C67.2396 30.5817 67.4263 30.5 67.6596 30.5H68.2896C68.5463 30.5 68.7446 30.57 68.8846 30.71C69.0246 30.85 69.0946 31.0483 69.0946 31.305V40.405L79.6996 31.025C79.8863 30.885 80.0729 30.7683 80.2596 30.675C80.4696 30.5583 80.7263 30.5 81.0296 30.5H81.5896C81.7763 30.5 81.9396 30.57 82.0796 30.71C82.2196 30.85 82.2896 31.0133 82.2896 31.2C82.2896 31.3867 82.2313 31.5383 82.1146 31.655L70.2496 42.225L82.8496 53.81C82.9896 53.95 83.0596 54.1133 83.0596 54.3C83.0596 54.4867 82.9896 54.65 82.8496 54.79C82.7096 54.93 82.5463 55 82.3596 55H81.7646C81.4613 55 81.2046 54.9533 80.9946 54.86C80.8079 54.7433 80.6213 54.615 80.4346 54.475L69.0946 44.115V54.23C69.0946 54.4633 69.0129 54.65 68.8496 54.79C68.7096 54.93 68.5229 55 68.2896 55H67.6596ZM3.06 85C2.82667 85 2.64 84.93 2.5 84.79C2.36 84.65 2.29 84.4633 2.29 84.23V61.305C2.29 61.0717 2.36 60.885 2.5 60.745C2.64 60.5817 2.82667 60.5 3.06 60.5H3.69C3.94667 60.5 4.145 60.57 4.285 60.71C4.425 60.85 4.495 61.0483 4.495 61.305V71.525H18.005V61.305C18.005 61.0717 18.075 60.885 18.215 60.745C18.355 60.5817 18.5417 60.5 18.775 60.5H19.405C19.6617 60.5 19.86 60.57 20 60.71C20.14 60.85 20.21 61.0483 20.21 61.305V84.23C20.21 84.4633 20.1283 84.65 19.965 84.79C19.825 84.93 19.6383 85 19.405 85H18.775C18.5417 85 18.355 84.93 18.215 84.79C18.075 84.65 18.005 84.4633 18.005 84.23V73.625H4.495V84.23C4.495 84.4633 4.41333 84.65 4.25 84.79C4.11 84.93 3.92333 85 3.69 85H3.06ZM27.5668 85C27.3335 85 27.1468 84.93 27.0068 84.79C26.8668 84.65 26.7968 84.4633 26.7968 84.23V61.27C26.7968 61.0367 26.8668 60.85 27.0068 60.71C27.1468 60.57 27.3335 60.5 27.5668 60.5H28.2318C28.4652 60.5 28.6518 60.57 28.7918 60.71C28.9318 60.85 29.0018 61.0367 29.0018 61.27V84.23C29.0018 84.4633 28.9318 84.65 28.7918 84.79C28.6518 84.93 28.4652 85 28.2318 85H27.5668ZM36.351 85C36.1177 85 35.931 84.93 35.791 84.79C35.651 84.65 35.581 84.4633 35.581 84.23V61.305C35.581 61.0717 35.651 60.885 35.791 60.745C35.931 60.5817 36.1177 60.5 36.351 60.5H37.086C37.3893 60.5 37.6343 60.64 37.821 60.92L50.736 80.66V61.305C50.736 61.0717 50.806 60.885 50.946 60.745C51.086 60.5817 51.2727 60.5 51.506 60.5H52.136C52.3927 60.5 52.591 60.57 52.731 60.71C52.871 60.85 52.941 61.0483 52.941 61.305V84.195C52.941 84.4283 52.871 84.6267 52.731 84.79C52.591 84.93 52.4043 85 52.171 85H51.401C51.0977 85 50.8527 84.86 50.666 84.58L37.786 64.91V84.23C37.786 84.4633 37.7043 84.65 37.541 84.79C37.401 84.93 37.2143 85 36.981 85H36.351Z" fill="current"/>
</svg>
