<svg width="28" height="28" viewBox="0 0 28 28" fill="none" xmlns="http://www.w3.org/2000/svg">
<path d="M11.466 10.7007C10.8134 10.0479 9.98191 9.6033 9.07663 9.42312C8.17135 9.24294 7.23296 9.33527 6.38016 9.68844C5.52736 10.0416 4.79844 10.6397 4.2856 11.4072C3.77275 12.1747 3.49902 13.077 3.49902 14C3.49902 14.9231 3.77275 15.8254 4.2856 16.5928C4.79844 17.3603 5.52736 17.9584 6.38016 18.3116C7.23296 18.6648 8.17135 18.7571 9.07663 18.5769C9.98191 18.3967 10.8134 17.9521 11.466 17.2993C12.5015 16.3603 13.3598 15.2427 14 14C14.6402 12.7573 15.4985 11.6398 16.534 10.7007C17.1866 10.0479 18.0181 9.6033 18.9234 9.42312C19.8287 9.24294 20.7671 9.33527 21.6199 9.68844C22.4727 10.0416 23.2016 10.6397 23.7144 11.4072C24.2273 12.1747 24.501 13.077 24.501 14C24.501 14.9231 24.2273 15.8254 23.7144 16.5928C23.2016 17.3603 22.4727 17.9584 21.6199 18.3116C20.7671 18.6648 19.8287 18.7571 18.9234 18.5769C18.0181 18.3967 17.1866 17.9521 16.534 17.2993C15.4985 16.3603 14.6402 15.2427 14 14C13.3598 12.7573 12.5015 11.6398 11.466 10.7007" stroke="white" stroke-width="1.5" stroke-linecap="round" stroke-linejoin="round"/>
</svg>
