<svg width="28" height="28" viewBox="0 0 28 28" fill="none" xmlns="http://www.w3.org/2000/svg">
<path d="M18.6667 4.66666H9.33341C6.75609 4.66666 4.66675 6.75599 4.66675 9.33332V18.6667C4.66675 21.244 6.75609 23.3333 9.33341 23.3333H18.6667C21.2441 23.3333 23.3334 21.244 23.3334 18.6667V9.33332C23.3334 6.75599 21.2441 4.66666 18.6667 4.66666Z" stroke="white" stroke-width="1.5" stroke-linecap="round" stroke-linejoin="round"/>
<path d="M14 17.5C15.933 17.5 17.5 15.933 17.5 14C17.5 12.067 15.933 10.5 14 10.5C12.067 10.5 10.5 12.067 10.5 14C10.5 15.933 12.067 17.5 14 17.5Z" stroke="white" stroke-width="1.5" stroke-linecap="round" stroke-linejoin="round"/>
<path d="M19.25 8.75V8.751" stroke="white" stroke-width="1.5" stroke-linecap="round" stroke-linejoin="round"/>
</svg>
